HIERARCHY
ROOT Hips
{
	OFFSET 0.000000 0.000000 0.000000
	CHANNELS 6 Xposition Yposition Zposition Zrotation Yrotation Xrotation 
	JOINT LeftUpLeg_virtual
	{
		OFFSET 0.000000 0.000000 0.000000
		CHANNELS 3 Zrotation Yrotation Xrotation
		JOINT LeftUpLeg
		{
			OFFSET 8.479694 -4.795517 -0.379053
			CHANNELS 3 Zrotation Yrotation Xrotation
			JOINT LeftLeg
			{
				OFFSET 0.485052 -32.551468 0.112863
				CHANNELS 3 Zrotation Yrotation Xrotation
				JOINT LeftFoot
				{
					OFFSET 0.438033 -32.635670 -3.012641
					CHANNELS 3 Zrotation Yrotation Xrotation
					JOINT LeftToeBase
					{
						OFFSET 0.970169 -13.225353 11.864223
						CHANNELS 3 Zrotation Yrotation Xrotation
						End Site
						{
							OFFSET 0.000000 0.000000 0.000000
						}
					}
				}
			}
		}
	}
	JOINT RightUpLeg_virtual
	{
		OFFSET 0.000000 0.000000 0.000000
		CHANNELS 3 Zrotation Yrotation Xrotation
		JOINT RightUpLeg
		{
			OFFSET -8.479694 -4.795517 -0.379053
			CHANNELS 3 Zrotation Yrotation Xrotation
			JOINT RightLeg
			{
				OFFSET -0.484100 -32.551483 0.112903
				CHANNELS 3 Zrotation Yrotation Xrotation
				JOINT RightFoot
				{
					OFFSET -0.438985 -32.635651 -3.012681
					CHANNELS 3 Zrotation Yrotation Xrotation
					JOINT RightToeBase
					{
						OFFSET -0.970169 -13.225354 11.864223
						CHANNELS 3 Zrotation Yrotation Xrotation
						End Site
						{
							OFFSET 0.000000 0.000000 0.000000
						}
					}
				}
			}
		}
	}
	JOINT Spine_virtual
	{
		OFFSET 0.000000 0.000000 0.000000
		CHANNELS 3 Zrotation Yrotation Xrotation
		JOINT Spine
		{
			OFFSET 0.000000 7.722015 1.166203
			CHANNELS 3 Zrotation Yrotation Xrotation
			JOINT Spine1
			{
				OFFSET 0.000000 12.024086 0.248766
				CHANNELS 3 Zrotation Yrotation Xrotation
				JOINT Spine2
				{
					OFFSET -0.000000 11.503036 -0.491240
					CHANNELS 3 Zrotation Yrotation Xrotation
					JOINT Neck_virtual
					{
						OFFSET 0.000000 0.000000 0.000000
						CHANNELS 3 Zrotation Yrotation Xrotation
						JOINT Neck
						{
							OFFSET 0.000000 18.430687 -3.123054
							CHANNELS 3 Zrotation Yrotation Xrotation
							JOINT Head
							{
								OFFSET -0.000000 9.051071 1.034021
								CHANNELS 3 Zrotation Yrotation Xrotation
								End Site
								{
									OFFSET 0.000000 0.000000 0.000000
								}
							}
						}
					}
					JOINT LeftShoulder_virtual
					{
						OFFSET 0.000000 0.000000 0.000000
						CHANNELS 3 Zrotation Yrotation Xrotation
						JOINT LeftShoulder
						{
							OFFSET 6.197824 13.665230 -4.064723
							CHANNELS 3 Zrotation Yrotation Xrotation
							JOINT LeftArm
							{
								OFFSET 7.778132 -0.187073 -1.709282
								CHANNELS 3 Zrotation Yrotation Xrotation
								JOINT LeftForeArm
								{
									OFFSET 21.954697 0.000000 -2.041093
									CHANNELS 3 Zrotation Yrotation Xrotation
									JOINT LeftHand
									{
										OFFSET 22.992908 0.000000 -0.870901
										CHANNELS 3 Zrotation Yrotation Xrotation
										End Site
										{
											OFFSET 0.000000 0.000000 0.000000
										}
									}
								}
							}
						}
					}
					JOINT RightShoulder_virtual
					{
						OFFSET 0.000000 0.000000 0.000000
						CHANNELS 3 Zrotation Yrotation Xrotation
						JOINT RightShoulder
						{
							OFFSET -6.197824 13.665230 -4.064723
							CHANNELS 3 Zrotation Yrotation Xrotation
							JOINT RightArm
							{
								OFFSET -7.778132 -0.187073 -1.709282
								CHANNELS 3 Zrotation Yrotation Xrotation
								JOINT RightForeArm
								{
									OFFSET -21.954697 0.000000 -2.041093
									CHANNELS 3 Zrotation Yrotation Xrotation
									JOINT RightHand
									{
										OFFSET -22.992908 0.000000 -0.870901
										CHANNELS 3 Zrotation Yrotation Xrotation
										End Site
										{
											OFFSET 0.000000 0.000000 0.000000
										}
									}
								}
							}
						}
					}
				}
			}
		}
	}
}
MOTION
Frames: 7
Frame Time: 0.033333
-115.251038 81.335106 144.111877 0.178135 46.063933 0.469671 -1.400153 -6.754786 14.826044 -2.658122 0.954385 -45.826437 8.341612 6.210307 25.210590 -6.930418 -9.601201 -5.881613 0.000000 0.000000 0.000000 4.241754 -7.343792 14.435091 -7.974935 3.397131 -15.756903 -0.087221 6.432565 32.044369 0.005643 8.467041 -16.536144 0.000000 0.000000 0.000000 4.683296 -1.781307 6.713136 3.541874 4.211265 -7.380272 -2.072706 -2.292766 7.318502 -0.018666 -0.039288 0.054146 -2.077050 -0.891688 7.190792 -7.450321 1.396802 3.041981 0.000000 0.000000 0.000000 -0.095222 -0.247727 3.785032 -0.681717 1.871864 4.379345 -62.102156 -6.257880 14.428396 -1.788892 -37.886281 14.973629 0.000000 0.000000 0.000000 -5.030672 1.198445 2.845559 29.894085 -0.543100 8.346595 39.052112 11.529550 -16.606724 -6.083941 10.664341 6.396861 0.000000 0.000000 0.000000 
-113.008377 80.915878 145.888046 0.168499 47.124931 0.704473 -1.070107 -7.222785 15.053580 -3.777281 2.213814 -46.690487 8.759598 6.668936 24.265005 -6.771415 -10.002909 -5.833916 0.000000 0.000000 0.000000 4.291835 -7.902251 14.969562 -7.958975 2.891122 -14.089557 -0.424487 6.399905 31.721820 -0.076759 8.761764 -16.591253 0.000000 0.000000 0.000000 4.887789 -1.998541 6.809479 3.158703 4.378666 -7.641843 -2.145362 -2.260387 7.175806 -0.028615 -0.020126 0.082038 -2.119535 -0.760465 7.142562 -7.528294 1.750193 3.048893 0.000000 0.000000 0.000000 -0.127223 -0.133034 3.860939 -0.695159 1.906610 4.190367 -62.221569 -6.267817 13.699875 -1.864043 -38.248229 14.864356 0.000000 0.000000 0.000000 -5.136412 1.218690 2.846941 29.725157 -0.418835 8.436680 39.927455 11.474950 -16.204836 -6.144136 10.268427 6.222791 0.000000 0.000000 0.000000 
-110.527290 80.519615 147.714752 0.126863 47.966161 0.817560 -0.881976 -7.359437 15.242749 -4.543867 3.368759 -46.730122 9.598463 6.325463 23.872961 -5.937438 -9.507686 -3.690138 0.000000 0.000000 0.000000 4.365974 -8.415286 15.408278 -8.066786 2.240296 -12.381677 -0.711350 6.368083 31.476049 0.019179 9.330211 -16.334367 0.000000 0.000000 0.000000 5.050353 -2.180941 6.910992 2.662015 4.560877 -7.877875 -2.146665 -2.172963 7.215043 -0.053606 0.023069 0.157636 -2.259530 -0.909139 7.123625 -7.734956 2.061825 3.260166 0.000000 0.000000 0.000000 -0.199464 -0.171124 3.730498 -0.696938 2.005977 4.015666 -62.251956 -6.223121 13.014817 -1.865466 -38.682445 14.548610 0.000000 0.000000 0.000000 -5.187993 1.225037 2.702859 29.641453 -0.286937 8.453926 40.560839 11.338818 -15.679420 -6.153151 9.813594 5.838721 0.000000 0.000000 0.000000 
-107.847343 80.196281 149.560471 -0.058200 48.699235 0.984061 -0.655420 -7.684072 15.210469 -4.992292 4.438767 -46.230815 10.776509 5.973371 24.132223 -4.538252 -8.403239 -1.234342 0.000000 0.000000 0.000000 4.374802 -8.830635 15.798726 -8.361809 1.328142 -10.622437 -0.985013 6.495607 31.278646 0.306276 10.043101 -15.518811 0.000000 0.000000 0.000000 5.137316 -2.570402 6.824997 2.026270 4.675774 -8.050757 -2.101709 -2.079409 7.178472 0.000320 0.082870 0.127784 -2.286564 -0.858941 7.012343 -7.835825 2.421929 3.075575 0.000000 0.000000 0.000000 -0.182708 -0.028056 3.545811 -0.635329 2.303555 3.825127 -62.435463 -5.965599 12.276727 -2.026507 -39.617191 14.429663 0.000000 0.000000 0.000000 -5.159618 1.474486 2.727129 29.502835 -0.142649 8.480407 41.203864 10.896805 -15.142535 -6.288024 9.448049 5.494991 0.000000 0.000000 0.000000 
-105.024651 80.002953 151.381851 -0.097449 49.708262 0.871925 -0.409995 -7.838592 15.192893 -5.427156 4.980460 -45.194344 11.870853 6.553260 25.318027 -3.454621 -7.677776 -1.438930 0.000000 0.000000 0.000000 4.515269 -9.479777 15.885973 -8.619463 -0.789495 -9.048986 -1.619365 5.391566 31.392991 0.538215 10.365400 -13.029239 0.000000 0.000000 0.000000 5.151427 -2.595342 6.836626 1.283178 4.696481 -8.047032 -2.090482 -2.021747 7.234316 -0.103575 0.075831 0.120075 -2.152772 -0.832679 6.982508 -7.745708 2.592232 2.896644 0.000000 0.000000 0.000000 -0.056027 -0.017997 3.488035 -0.300324 2.151696 3.693564 -62.431904 -5.607128 12.194712 -2.305955 -41.285037 14.484367 0.000000 0.000000 0.000000 -5.087356 1.369678 2.636647 29.534715 -0.203459 8.412280 41.820155 10.226300 -14.571478 -6.183288 9.409433 5.438214 0.000000 0.000000 0.000000 
-102.122162 79.947929 153.103027 -0.047638 50.849666 0.792766 -0.200353 -7.786843 15.039052 -5.753898 4.905896 -43.603330 12.652531 7.282518 26.220842 -2.563585 -7.128881 -2.258751 0.000000 0.000000 0.000000 4.652414 -9.488392 15.868479 -8.798420 -3.689507 -7.615452 -2.308358 3.940427 31.881575 0.824239 10.595351 -10.299530 0.000000 0.000000 0.000000 4.975399 -2.832933 6.827274 0.483405 4.700965 -8.010674 -2.014243 -1.915571 7.321433 -0.028999 0.103104 0.082090 -2.075778 -0.702936 6.849501 -7.631527 2.570509 2.722001 0.000000 0.000000 0.000000 -0.085549 -0.017018 3.448198 0.294383 2.153098 3.702900 -62.171613 -4.818920 12.447502 -2.801585 -43.751784 14.766732 0.000000 0.000000 0.000000 -4.961265 1.482092 2.685841 29.527065 -0.299637 8.306104 42.332143 9.217363 -13.964487 -6.206018 9.777100 5.053702 0.000000 0.000000 0.000000 
-99.215721 80.020050 154.666473 0.345324 52.090311 0.411357 -0.228711 -7.332293 15.086076 -6.134402 4.227205 -41.372542 13.108389 8.287461 27.042804 -1.723576 -6.638490 -3.073094 0.000000 0.000000 0.000000 5.002790 -9.574380 15.607862 -8.643208 -6.249464 -6.868758 -2.719677 2.866209 33.355106 1.260095 11.017870 -7.897865 0.000000 0.000000 0.000000 4.632953 -2.528159 7.171225 -0.332969 4.583060 -7.751044 -2.005960 -2.041598 7.456668 0.034699 0.098971 -0.012177 -1.913128 -0.651183 6.767451 -7.469509 2.678336 2.607364 0.000000 0.000000 0.000000 0.044973 0.015012 3.476118 1.226118 1.989937 3.588201 -61.592556 -3.676653 13.292006 -3.568836 -46.585572 15.416055 0.000000 0.000000 0.000000 -4.845870 1.450390 2.743409 29.617978 -0.389579 8.154758 42.709736 8.082468 -13.374900 -6.102881 10.488645 4.670235 0.000000 0.000000 0.000000 
